<?xml version="1.0" encoding="iso-8859-1"?>
<!-- Uploaded to: SVGRepo, www.svgrepo.com, Transformed by: SVGRepo Tools -->
<svg version="1.1" id="Layer_1" xmlns="http://www.w3.org/2000/svg" xmlns:xlink="http://www.w3.org/1999/xlink" 
	 viewBox="0 0 512 512" xml:space="preserve">
<path style="fill:#FFBCAB;" d="M401.137,164.308c-14.222-23.612-44.894-31.223-68.506-17c-19.047,11.474-27.673,33.65-22.833,54.191
	l-1.741,1.741l-13.828-22.956l-33.465-55.555l31.872-55.778c1.967-3.442,0.657-7.83-2.875-9.631l0,0
	c-16.29-8.303-36.228-2.341-45.287,13.541l-25.288,39.458c-4.792,7.477-5.036,16.997-0.633,24.71l22.394,39.226
	c1.604,2.809,0.956,6.365-1.536,8.428l-99.27,82.192v36.584h187.765l0.49-17.327c11.941-7.193,15.826-22.848,8.634-34.79
	l-12.688-21.065l1.973-1.973c15.881,13.317,39.072,15.802,57.82,4.51C407.749,218.592,415.36,187.92,401.137,164.308z"/>
<path style="fill:#315591;" d="M401.137,164.308c-14.222-23.612-44.894-31.223-68.506-17c-8.163,4.916-14.41,11.8-18.507,19.677
	c12.375,7.992,44.709,26.093,93.082,33.391C409.728,188.448,407.924,175.576,401.137,164.308z"/>
<path style="fill:#FF9478;" d="M335.66,248.713H162.294l-21.938,18.164v36.584h187.765l0.49-17.327
	c11.941-7.193,15.826-22.848,8.634-34.79L335.66,248.713z"/>
<path style="fill:#52A2E7;" d="M504.147,277.92c-15.239-14.859-39.593-14.705-54.643,0.346l-0.382,0.382
	c-15.186,15.186-39.807,15.186-54.994,0l-0.059-0.059c-15.177-15.178-39.781-15.188-54.971-0.023l-0.036,0.036
	c-15.19,15.164-39.793,15.154-54.971-0.023l-0.059-0.059c-15.186-15.186-39.807-15.186-54.994,0l-0.382,0.382
	c-15.051,15.051-39.404,15.205-54.643,0.346l-1.362-1.327c-15.239-14.859-39.593-14.705-54.643,0.346l-0.382,0.382
	c-15.186,15.186-39.807,15.186-54.994,0l-0.036-0.036c-15.186-15.186-39.807-15.186-54.994,0c0,0,0,150.19,0,147.614
	c0-2.575,496.544,0,496.544,0V278.587"/>
<path style="fill:#4675CF;" d="M201.155,362.149c-11.731,0.001-23.464-4.371-32.451-13.133l-1.36-1.326
	c-12.197-11.893-31.916-11.768-43.959,0.277l-0.382,0.382c-2.971,2.969-7.784,2.969-10.754,0c-2.97-2.971-2.97-7.784,0-10.754
	l0.382-0.382c17.899-17.899,47.205-18.084,65.33-0.413l1.36,1.326c12.196,11.892,31.915,11.767,43.959-0.277l0.381-0.381
	c8.781-8.78,20.457-13.616,32.874-13.616c12.418,0,24.093,4.836,32.874,13.616c12.244,12.246,32.084,12.255,44.28,0.077
	c18.164-18.133,47.645-18.118,65.756-0.009c0.015,0.016,0.088,0.09,0.103,0.105c2.944,2.995,2.904,7.809-0.09,10.753
	c-2.995,2.943-7.808,2.905-10.753-0.09l-0.059-0.06c-12.143-12.143-31.979-12.149-44.177,0.026
	c-18.162,18.133-47.643,18.12-65.756,0.009c-12.253-12.255-32.101-12.258-44.298-0.059l-0.381,0.381
	C225.011,357.628,213.083,362.148,201.155,362.149z"/>
<rect x="7.604" y="415.116" style="fill:#E5E5E5;" width="496.792" height="41.317"/>
<g>
	<rect x="190.129" y="415.116" style="fill:#ACAAB1;" width="71.68" height="41.731"/>
	<rect x="63.708" y="415.116" style="fill:#ACAAB1;" width="58.765" height="41.731"/>
	<rect x="322.884" y="415.42" style="fill:#ACAAB1;" width="71.508" height="41.731"/>
	<rect x="459.198" y="415.42" style="fill:#ACAAB1;" width="45.202" height="41.731"/>
</g>
<rect x="7.329" y="390.905" style="fill:#4675CF;" width="496.539" height="24.209"/>
<path d="M123.004,348.351l0.382-0.382c12.043-12.046,31.762-12.17,43.959-0.277l1.36,1.326c8.987,8.763,20.719,13.134,32.451,13.133
	c11.928-0.001,23.855-4.522,32.88-13.545l0.381-0.381c12.197-12.199,32.045-12.196,44.298,0.059
	c18.113,18.111,47.594,18.124,65.756-0.009c12.198-12.176,32.035-12.169,44.177-0.026l0.059,0.06
	c2.945,2.995,7.758,3.033,10.753,0.09c2.994-2.944,3.034-7.758,0.09-10.753c-0.015-0.015-0.088-0.089-0.103-0.105
	c-18.111-18.109-47.592-18.124-65.756,0.009c-12.197,12.177-32.036,12.169-44.28-0.077c-8.781-8.78-20.457-13.616-32.874-13.616
	c-12.418,0-24.093,4.836-32.874,13.616l-0.381,0.381c-12.044,12.045-31.763,12.169-43.959,0.277l-1.36-1.326
	c-18.125-17.672-47.43-17.486-65.33,0.413l-0.382,0.382c-2.97,2.971-2.97,7.784,0,10.754
	C115.22,351.319,120.034,351.319,123.004,348.351z"/>
<path d="M511.751,414.22V278.586c0-0.112-0.002-0.223-0.007-0.334c0.09-2.089-0.674-4.203-2.288-5.777
	c-18.124-17.672-47.428-17.486-65.329,0.413l-0.382,0.382c-12.195,12.199-32.042,12.199-44.195,0.046
	c-0.015-0.015-0.088-0.089-0.103-0.105c-13.817-13.815-34.247-17.087-51.21-9.831c-0.159-5.587-1.739-11.058-4.691-15.959
	l-1.305-2.167c0.758,0.221,1.52,0.437,2.291,0.629c4.626,1.149,9.308,1.716,13.956,1.716c10.329,0,20.498-2.804,29.573-8.27
	c13.159-7.926,22.445-20.504,26.144-35.415c0.28-1.129,0.514-2.262,0.725-3.395c0.008-0.051,0.019-0.101,0.026-0.153
	c2.532-13.794-0.006-27.862-7.306-39.981c-7.926-13.159-20.503-22.445-35.414-26.144c-14.912-3.701-30.37-1.373-43.529,6.554
	c-13.159,7.926-22.445,20.504-26.144,35.415c-0.192,0.772-0.357,1.545-0.516,2.319l-32.466-53.899L302.852,66.4
	c1.032-1.805,1.279-3.954,0.684-5.947c-0.595-1.993-1.98-3.654-3.832-4.599l-6.49-3.309c-19.882-10.133-44.104-2.939-55.242,16.371
	l-25.186,39.301c-6.341,9.893-6.66,22.378-0.834,32.583l22,38.535l-97.763,80.944c-8.656,1.747-16.897,5.95-23.557,12.61
	l-0.382,0.382c-12.194,12.196-32.042,12.199-44.276-0.036c-18.125-18.125-47.621-18.124-65.746,0C0.801,274.66,0,276.594,0,278.611
	v137.511l0,0l0,0v40.313c0,4.2,3.404,7.604,7.604,7.604h496.792c4.2,0,7.604-3.404,7.604-7.604v-40.313
	C512,415.464,511.908,414.83,511.751,414.22z M380.213,226.3c-19.982,12.038-46.032,5.572-58.068-14.411
	c-6.967-11.566-7.725-25.161-3.261-36.899l79.407,29.052C395.151,213.03,388.986,221.016,380.213,226.3z M336.555,153.821
	c6.676-4.022,14.155-6.084,21.752-6.084c3.419,0,6.863,0.418,10.266,1.263c10.967,2.722,20.218,9.552,26.048,19.232
	c3.869,6.423,5.817,13.471,6.028,20.481l-73.701-26.965C329.677,158.717,332.886,156.031,336.555,153.821z M115.259,423.727v25.105
	H63.201v-25.105H115.259z M130.467,423.727h52.059v25.105h-52.059V423.727z M197.732,423.727h52.059v25.105h-52.059V423.727z
	 M264.999,423.727h52.059v25.105h-52.059L264.999,423.727L264.999,423.727z M332.266,423.727h52.059v25.105h-52.059L332.266,423.727
	L332.266,423.727z M399.531,423.727h52.058v25.105h-52.058V423.727z M250.327,177.346l-25.168-44.086
	c-3.011-5.273-2.846-11.724,0.431-16.836l25.287-39.458c0.07-0.109,0.139-0.222,0.203-0.336
	c6.945-12.175,22.031-16.853,34.608-10.84l-31.525,55.168c-1.368,2.392-1.332,5.336,0.088,7.696l76.267,126.615
	c5.017,8.327,2.365,19.159-5.889,24.249c-11.546,5.281-25.663,3.186-35.116-6.269c-0.015-0.015-0.088-0.089-0.103-0.105
	c-8.781-8.78-20.457-13.617-32.874-13.617c-12.418,0-24.093,4.837-32.882,13.624l-0.374,0.375
	c-12.044,12.045-31.762,12.169-43.957,0.279l-1.363-1.329c-5.545-5.406-12.138-9.132-19.13-11.199l89.742-74.303
	C251.418,184.616,252.16,180.555,250.327,177.346z M15.208,281.963c12.276-10.129,30.533-9.452,42.049,2.061
	c8.781,8.78,20.457,13.616,32.874,13.616c12.417,0,24.092-4.836,32.873-13.616l0.382-0.382
	c12.043-12.043,31.762-12.168,43.957-0.279l1.363,1.329c18.123,17.67,47.429,17.486,65.335-0.42l0.374-0.375
	c5.908-5.909,13.763-9.163,22.119-9.163s16.212,3.254,22.075,9.118c0.015,0.015,0.088,0.089,0.103,0.105
	c18.112,18.11,47.593,18.124,65.721,0.026c0.015-0.015,0.042-0.042,0.066-0.066c12.199-12.146,32.015-12.129,44.147,0.003
	c0.015,0.015,0.088,0.089,0.103,0.105c18.127,18.127,47.622,18.127,65.749,0l0.382-0.383c11.314-11.315,29.4-12.112,41.662-2.306
	v127.107c-22.407-0.112-91.288-0.443-170.104-0.714c-0.571-0.137-1.164-0.217-1.777-0.217c-0.596,0-1.174,0.076-1.732,0.206
	c-21.35-0.073-43.381-0.14-65.381-0.198c-0.052-0.001-0.102-0.008-0.154-0.008c-0.047,0-0.092,0.006-0.139,0.007
	c-0.133,0-0.266,0-0.398-0.001c-46.338-0.121-86.65-0.181-120.515-0.181c-18.681,0-35.403,0.019-50.087,0.056
	c-11.427,0.028-21.65,0.069-30.65,0.121c-0.003,0-0.006,0-0.009,0c-0.004,0-0.008,0-0.012,0c-10.319,0.059-19.023,0.133-25.998,0.22
	c-5.967,0.075-10.791,0.162-14.38,0.26L15.208,281.963L15.208,281.963z M15.208,423.727h32.785v25.105H15.208V423.727z
	 M496.792,448.832h-29.995v-25.105h29.995V448.832z"/>
<g>
</g>
<g>
</g>
<g>
</g>
<g>
</g>
<g>
</g>
<g>
</g>
<g>
</g>
<g>
</g>
<g>
</g>
<g>
</g>
<g>
</g>
<g>
</g>
<g>
</g>
<g>
</g>
<g>
</g>
</svg>
